<?xml version="1.0" encoding="UTF-8"?>
<svg xmlns="http://www.w3.org/2000/svg" xmlns:xlink="http://www.w3.org/1999/xlink" width="64pt" height="64pt" viewBox="0 0 64 64" version="1.1">
<g id="surface875176">
<path style=" stroke:none;fill-rule:nonzero;fill:rgb(97.647059%,89.019608%,68.235294%);fill-opacity:1;" d="M 57 38.75 L 32.660156 60.410156 C 32.28125 60.742188 31.71875 60.742188 31.339844 60.410156 L 7 38.75 C 6.691406 38.480469 6.582031 38.046875 6.71875 37.660156 C 6.859375 37.273438 7.21875 37.011719 7.628906 37 L 17 37 L 17 5 C 17 3.894531 17.894531 3 19 3 L 45 3 C 46.105469 3 47 3.894531 47 5 L 47 37 L 56.371094 37 C 56.78125 37.011719 57.140625 37.273438 57.28125 37.660156 C 57.417969 38.046875 57.308594 38.480469 57 38.75 Z M 57 38.75 "/>
<path style=" stroke:none;fill-rule:nonzero;fill:rgb(96.470588%,82.745098%,59.215686%);fill-opacity:1;" d="M 55.199219 38 C 53.511719 38 51.882812 38.617188 50.621094 39.738281 L 31.941406 56.378906 C 31.367188 56.878906 31.058594 57.613281 31.101562 58.375 C 31.144531 59.132812 31.535156 59.828125 32.160156 60.261719 C 32.390625 60.410156 32.570312 60.480469 32.660156 60.398438 L 57.441406 38.320312 C 58.128906 37.710938 56.121094 38 55.199219 38 Z M 55.199219 38 "/>
<path style=" stroke:none;fill-rule:nonzero;fill:rgb(92.941176%,47.058824%,60%);fill-opacity:1;" d="M 47 5 L 47 13 L 17 13 L 17 5 C 17 3.894531 17.894531 3 19 3 L 45 3 C 46.105469 3 47 3.894531 47 5 Z M 47 5 "/>
<path style=" stroke:none;fill-rule:nonzero;fill:rgb(55.294118%,42.352941%,62.352941%);fill-opacity:1;" d="M 58.238281 37.289062 C 57.945312 36.511719 57.199219 36 56.371094 36 L 48 36 L 48 5 C 48 3.34375 46.65625 2 45 2 L 19 2 C 17.34375 2 16 3.34375 16 5 L 16 36 L 7.628906 36 C 6.800781 36 6.058594 36.515625 5.765625 37.289062 C 5.46875 38.0625 5.683594 38.9375 6.300781 39.488281 L 30.671875 61.160156 C 31.429688 61.835938 32.570312 61.835938 33.328125 61.160156 L 57.699219 39.5 C 58.320312 38.949219 58.539062 38.066406 58.238281 37.289062 Z M 18 5 C 18 4.449219 18.449219 4 19 4 L 45 4 C 45.550781 4 46 4.449219 46 5 L 46 12 L 18 12 Z M 32 59.660156 L 7.628906 38 L 17 38 C 17.550781 38 18 37.550781 18 37 L 18 14 L 46 14 L 46 37 C 46 37.550781 46.449219 38 47 38 L 56.371094 38 Z M 32 59.660156 "/>
<path style=" stroke:none;fill-rule:nonzero;fill:rgb(55.294118%,42.352941%,62.352941%);fill-opacity:1;" d="M 42 6 C 41.449219 6 41 6.449219 41 7 L 41 9 C 41 9.550781 41.449219 10 42 10 C 42.550781 10 43 9.550781 43 9 L 43 7 C 43 6.449219 42.550781 6 42 6 Z M 37 6 C 36.449219 6 36 6.449219 36 7 L 36 9 C 36 9.550781 36.449219 10 37 10 C 37.550781 10 38 9.550781 38 9 L 38 7 C 38 6.449219 37.550781 6 37 6 Z M 32 6 C 31.449219 6 31 6.449219 31 7 L 31 9 C 31 9.550781 31.449219 10 32 10 C 32.550781 10 33 9.550781 33 9 L 33 7 C 33 6.449219 32.550781 6 32 6 Z M 27 6 C 26.449219 6 26 6.449219 26 7 L 26 9 C 26 9.550781 26.449219 10 27 10 C 27.550781 10 28 9.550781 28 9 L 28 7 C 28 6.449219 27.550781 6 27 6 Z M 22 6 C 21.449219 6 21 6.449219 21 7 L 21 9 C 21 9.550781 21.449219 10 22 10 C 22.550781 10 23 9.550781 23 9 L 23 7 C 23 6.449219 22.550781 6 22 6 Z M 30 23 L 34 23 C 35.65625 23 37 24.34375 37 26 C 37 26.550781 37.449219 27 38 27 C 38.550781 27 39 26.550781 39 26 C 39 23.238281 36.761719 21 34 21 L 33 21 L 33 18 C 33 17.449219 32.550781 17 32 17 C 31.449219 17 31 17.449219 31 18 L 31 21 L 30 21 C 27.238281 21 25 23.238281 25 26 L 25 28 C 25 30.761719 27.238281 33 30 33 L 34 33 C 35.65625 33 37 34.34375 37 36 L 37 38 C 37 39.65625 35.65625 41 34 41 L 33 41 L 33 35 C 33 34.449219 32.550781 34 32 34 C 31.449219 34 31 34.449219 31 35 L 31 41 L 30 41 C 28.34375 41 27 39.65625 27 38 C 27 37.449219 26.550781 37 26 37 C 25.449219 37 25 37.449219 25 38 C 25 40.761719 27.238281 43 30 43 L 31 43 L 31 46 C 31 46.550781 31.449219 47 32 47 C 32.550781 47 33 46.550781 33 46 L 33 43 L 34 43 C 36.761719 43 39 40.761719 39 38 L 39 36 C 39 33.238281 36.761719 31 34 31 L 33 31 L 33 25 C 33 24.449219 32.550781 24 32 24 C 31.449219 24 31 24.449219 31 25 L 31 31 L 30 31 C 28.34375 31 27 29.65625 27 28 L 27 26 C 27 24.34375 28.34375 23 30 23 Z M 30 23 "/>
</g>
</svg>
