<?xml version="1.0" encoding="UTF-8"?>
<svg xmlns="http://www.w3.org/2000/svg" xmlns:xlink="http://www.w3.org/1999/xlink" width="64pt" height="64pt" viewBox="0 0 64 64" version="1.1">
<g id="surface873478">
<path style=" stroke:none;fill-rule:nonzero;fill:rgb(74.509804%,80.392157%,90.980392%);fill-opacity:1;" d="M 60.789062 35.5 L 51.929688 8 L 51.179688 5.671875 C 50.660156 4.070312 49.199219 3 47.53125 3 L 16.421875 3 C 14.761719 3 13.300781 4.070312 12.78125 5.671875 L 12.03125 8 L 3.171875 35.5 C 2.648438 37.101562 3.210938 38.828125 4.558594 39.820312 L 29.730469 58.261719 C 30.398438 58.75 31.191406 59 31.980469 59 C 32.769531 59 33.558594 58.75 34.230469 58.261719 L 59.398438 39.820312 C 60.738281 38.828125 61.300781 37.101562 60.789062 35.5 Z M 60.789062 35.5 "/>
<path style=" stroke:none;fill-rule:nonzero;fill:rgb(79.607843%,85.098039%,92.941176%);fill-opacity:1;" d="M 49.488281 8 L 14.472656 8 C 13.265625 8 12.410156 6.824219 12.777344 5.675781 L 12.78125 5.671875 C 13.300781 4.070312 14.761719 3 16.421875 3 L 47.53125 3 C 49.199219 3 50.660156 4.070312 51.179688 5.671875 L 51.183594 5.675781 C 51.550781 6.824219 50.695312 8 49.488281 8 Z M 49.488281 8 "/>
<path style=" stroke:none;fill-rule:nonzero;fill:rgb(100%,96.862745%,94.117647%);fill-opacity:1;" d="M 31.980469 44.828125 C 24.46875 44.828125 22.03125 39.816406 21.304688 37.492188 C 21.121094 36.917969 21.554688 36.335938 22.15625 36.335938 L 28 36.335938 C 28.273438 36.335938 28.53125 36.457031 28.695312 36.675781 C 29.105469 37.226562 30.097656 38.25 31.753906 38.25 C 34.011719 38.25 35.707031 36.238281 35.707031 34.324219 C 35.707031 32.40625 34.113281 30.484375 31.546875 30.484375 C 29.761719 30.484375 28.746094 31.683594 28.292969 32.414062 C 28.089844 32.742188 27.699219 32.890625 27.332031 32.796875 L 22.734375 31.617188 C 22.289062 31.503906 22.003906 31.0625 22.078125 30.601562 L 24.539062 15.75 C 24.613281 15.316406 24.984375 15 25.421875 15 L 39.523438 15 C 40.015625 15 40.410156 15.402344 40.410156 15.894531 L 40.410156 20.1875 C 40.410156 20.683594 40.015625 21.082031 39.523438 21.082031 L 30.800781 21.082031 C 30.492188 21.082031 30.226562 21.3125 30.183594 21.621094 L 29.828125 24.148438 C 29.75 24.804688 30.378906 25.296875 31.003906 25.09375 C 31.59375 24.90625 32.359375 24.746094 33.285156 24.746094 C 37.035156 24.746094 42.84375 26.703125 42.84375 33.847656 C 42.84375 40.992188 36.980469 44.828125 31.980469 44.828125 Z M 31.980469 44.828125 "/>
<path style=" stroke:none;fill-rule:nonzero;fill:rgb(30.196078%,36.862745%,64.705882%);fill-opacity:1;" d="M 61.742188 35.195312 L 52.128906 5.363281 C 51.480469 3.351562 49.636719 2 47.53125 2 L 16.425781 2 C 14.324219 2 12.480469 3.351562 11.828125 5.363281 L 2.214844 35.195312 C 1.570312 37.199219 2.273438 39.382812 3.96875 40.628906 L 29.136719 59.070312 C 29.96875 59.679688 30.953125 60 31.976562 60 C 33.003906 60 33.988281 59.679688 34.820312 59.066406 L 59.988281 40.628906 C 61.683594 39.386719 62.386719 37.199219 61.742188 35.195312 Z M 58.808594 39.015625 L 33.640625 57.453125 C 32.664062 58.167969 31.292969 58.167969 30.316406 57.453125 L 5.152344 39.019531 C 4.152344 38.285156 3.738281 36.996094 4.117188 35.808594 L 13.730469 5.980469 C 14.113281 4.796875 15.195312 4 16.425781 4 L 47.53125 4 C 48.761719 4 49.84375 4.792969 50.226562 5.976562 L 59.839844 35.808594 C 60.21875 36.992188 59.804688 38.28125 58.808594 39.015625 Z M 58.808594 39.015625 "/>
<path style=" stroke:none;fill-rule:nonzero;fill:rgb(30.196078%,36.862745%,64.705882%);fill-opacity:1;" d="M 33.285156 23.75 C 32.414062 23.75 31.566406 23.875 30.839844 24.140625 L 31.132812 22.082031 L 39.523438 22.082031 C 40.566406 22.082031 41.414062 21.230469 41.414062 20.1875 L 41.414062 15.894531 C 41.414062 14.851562 40.566406 14 39.523438 14 L 25.421875 14 C 24.492188 14 23.710938 14.664062 23.554688 15.582031 L 21.09375 30.4375 C 20.933594 31.402344 21.546875 32.34375 22.488281 32.585938 L 27.085938 33.765625 C 27.886719 33.96875 28.714844 33.636719 29.144531 32.941406 C 29.558594 32.273438 30.308594 31.480469 31.550781 31.480469 C 33.527344 31.480469 34.710938 32.925781 34.710938 34.320312 C 34.710938 35.703125 33.445312 37.25 31.753906 37.25 C 30.558594 37.25 29.824219 36.511719 29.496094 36.074219 C 29.148438 35.609375 28.589844 35.332031 28.003906 35.332031 L 22.15625 35.332031 C 21.558594 35.332031 20.988281 35.621094 20.632812 36.105469 C 20.269531 36.59375 20.167969 37.210938 20.351562 37.789062 C 21.105469 40.207031 23.753906 45.824219 31.980469 45.824219 C 37.8125 45.824219 43.84375 41.34375 43.84375 33.847656 C 43.84375 25.875 37.207031 23.75 33.285156 23.75 Z M 31.980469 43.824219 C 25.449219 43.824219 23.121094 39.824219 22.304688 37.335938 L 27.941406 37.335938 C 28.421875 37.957031 29.679688 39.25 31.753906 39.25 C 34.671875 39.25 36.707031 36.652344 36.707031 34.324219 C 36.707031 31.941406 34.777344 29.480469 31.546875 29.480469 C 29.339844 29.480469 28.078125 30.902344 27.496094 31.804688 L 23.078125 30.671875 L 25.515625 16 L 39.410156 16 L 39.410156 20.082031 L 30.800781 20.082031 C 29.996094 20.082031 29.304688 20.6875 29.195312 21.480469 L 28.835938 24.027344 C 28.761719 24.671875 29.011719 25.296875 29.507812 25.707031 C 30.011719 26.121094 30.683594 26.253906 31.308594 26.046875 C 31.929688 25.851562 32.597656 25.75 33.285156 25.75 C 34.164062 25.75 41.84375 25.976562 41.84375 33.847656 C 41.84375 40.730469 36.074219 43.824219 31.980469 43.824219 Z M 17 6 C 16.449219 6 16 6.445312 16 7 L 16 9 C 16 9.554688 16.449219 10 17 10 C 17.550781 10 18 9.554688 18 9 L 18 7 C 18 6.445312 17.550781 6 17 6 Z M 22 10 C 22.550781 10 23 9.554688 23 9 L 23 7 C 23 6.445312 22.550781 6 22 6 C 21.449219 6 21 6.445312 21 7 L 21 9 C 21 9.554688 21.449219 10 22 10 Z M 27 10 C 27.550781 10 28 9.554688 28 9 L 28 7 C 28 6.445312 27.550781 6 27 6 C 26.449219 6 26 6.445312 26 7 L 26 9 C 26 9.554688 26.449219 10 27 10 Z M 32 10 C 32.550781 10 33 9.554688 33 9 L 33 7 C 33 6.445312 32.550781 6 32 6 C 31.449219 6 31 6.445312 31 7 L 31 9 C 31 9.554688 31.449219 10 32 10 Z M 37 10 C 37.550781 10 38 9.554688 38 9 L 38 7 C 38 6.445312 37.550781 6 37 6 C 36.449219 6 36 6.445312 36 7 L 36 9 C 36 9.554688 36.449219 10 37 10 Z M 42 10 C 42.550781 10 43 9.554688 43 9 L 43 7 C 43 6.445312 42.550781 6 42 6 C 41.449219 6 41 6.445312 41 7 L 41 9 C 41 9.554688 41.449219 10 42 10 Z M 47 6 C 46.449219 6 46 6.445312 46 7 L 46 9 C 46 9.554688 46.449219 10 47 10 C 47.550781 10 48 9.554688 48 9 L 48 7 C 48 6.445312 47.550781 6 47 6 Z M 47 6 "/>
</g>
</svg>
