<?xml version="1.0" encoding="UTF-8"?>
<svg xmlns="http://www.w3.org/2000/svg" xmlns:xlink="http://www.w3.org/1999/xlink" width="500pt" height="500pt" viewBox="0 0 500 500" version="1.1">
<g id="surface1">
<path style=" stroke:none;fill-rule:nonzero;fill:#ffffff;fill-opacity:1;" d="M 365.824219 -0.308594 C 325.910156 0.8125 276.769531 7.167969 248.945313 35.03125 L 242.125 41.542969 C 196.941406 87.039063 197.289063 158.613281 242.746094 204.304688 L 292.347656 253.90625 C 314.398438 276.035156 343.347656 288.320313 373.882813 288.320313 C 404.070313 288.320313 432.710938 276.035156 454.488281 254.214844 L 461 247.707031 C 495.605469 213.136719 495.914063 141.757813 496.03125 111.296875 C 496.070313 105.949219 494.871094 101.765625 492 98.894531 C 489.675781 96.570313 486.34375 95.484375 483.011719 95.484375 C 477.703125 95.484375 473.59375 98.585938 471.539063 100.445313 L 407.054688 165.242188 C 405.699219 165.472656 402.5625 165.859375 396.515625 165.859375 C 374.8125 165.859375 344.507813 161.636719 336.992188 158.421875 C 331.992188 147.492188 328.117188 99.632813 331.410156 89.597656 C 341.488281 79.519531 396.4375 24.257813 396.824219 23.871094 C 398.570313 21.894531 404.265625 15.035156 400.855469 7.441406 C 399.539063 4.535156 395.972656 -0.269531 386.59375 -0.308594 L 382.253906 -0.308594 C 377.023438 -0.308594 371.519531 -0.464844 365.824219 -0.308594 Z M 212.054688 197.792969 L 22.941406 369.855469 C 2.90625 389.925781 -14.84375 435.886719 22.941406 473.710938 C 40.339844 491.109375 58.554688 495.722656 73.164063 495.722656 C 76.921875 495.722656 80.21875 495.296875 83.394531 494.792969 C 102.304688 491.960938 118.078125 482.160156 126.796875 473.398438 L 298.550781 284.289063 L 282.738281 272.199219 L 224.144531 213.605469 Z "/>
</g>
</svg>
