<?xml version="1.0" encoding="UTF-8"?>
<svg xmlns="http://www.w3.org/2000/svg" xmlns:xlink="http://www.w3.org/1999/xlink" width="500pt" height="500pt" viewBox="0 0 500 500" version="1.1">
<g id="surface1">
<path style=" stroke:none;fill-rule:nonzero;fill:#ffffff;fill-opacity:1;" d="M 223.214844 49.601563 C 211.199219 49.601563 199.691406 54.097656 190.664063 62.003906 L 124.316406 119.976563 L 22.632813 145.398438 C 9.378906 148.730469 0 160.550781 0 174.230469 L 0 228.175781 C 0 244.566406 13.371094 257.9375 29.761719 257.9375 L 40.613281 257.9375 C 45.261719 280.492188 65.414063 297.617188 89.285156 297.617188 C 113.15625 297.617188 133.308594 280.492188 137.957031 257.9375 L 338.230469 257.9375 C 342.882813 280.492188 363.035156 297.617188 386.90625 297.617188 C 410.777344 297.617188 430.925781 280.492188 435.578125 257.9375 L 466.269531 257.9375 C 482.664063 257.9375 496.03125 244.566406 496.03125 228.175781 L 496.03125 163.070313 C 496.03125 150.242188 487.738281 138.925781 475.570313 134.859375 L 432.476563 120.289063 L 386.59375 66.964844 C 377.140625 55.957031 363.265625 49.601563 348.773438 49.601563 Z M 89.285156 218.253906 C 105.832031 218.253906 119.046875 231.46875 119.046875 248.015625 C 119.046875 264.5625 105.832031 277.777344 89.285156 277.777344 C 72.738281 277.777344 59.523438 264.5625 59.523438 248.015625 C 59.523438 231.46875 72.738281 218.253906 89.285156 218.253906 Z M 386.90625 218.253906 C 403.453125 218.253906 416.667969 231.46875 416.667969 248.015625 C 416.667969 264.5625 403.453125 277.777344 386.90625 277.777344 C 370.359375 277.777344 357.144531 264.5625 357.144531 248.015625 C 357.144531 231.46875 370.359375 218.253906 386.90625 218.253906 Z M 217.324219 277.46875 C 217.015625 277.546875 216.703125 277.660156 216.394531 277.777344 L 188.492188 277.777344 C 188.183594 277.777344 187.871094 277.777344 187.5625 277.777344 C 182.097656 278.050781 177.835938 282.699219 178.105469 288.164063 C 178.378906 293.628906 183.027344 297.890625 188.492188 297.617188 L 208.332031 297.617188 L 208.332031 426.585938 L 49.601563 426.585938 C 49.292969 426.585938 48.984375 426.585938 48.671875 426.585938 C 43.210938 426.859375 38.945313 431.507813 39.21875 436.972656 C 39.488281 442.4375 44.140625 446.699219 49.601563 446.429688 L 446.429688 446.429688 C 449.992188 446.46875 453.328125 444.605469 455.148438 441.507813 C 456.929688 438.40625 456.929688 434.609375 455.148438 431.507813 C 453.328125 428.410156 449.992188 426.546875 446.429688 426.585938 L 287.699219 426.585938 L 287.699219 297.617188 L 307.539063 297.617188 C 311.105469 297.65625 314.4375 295.796875 316.257813 292.699219 C 318.042969 289.597656 318.042969 285.800781 316.257813 282.699219 C 314.4375 279.597656 311.105469 277.738281 307.539063 277.777344 L 279.636719 277.777344 C 278.746094 277.546875 277.777344 277.429688 276.847656 277.46875 C 276.421875 277.546875 275.996094 277.660156 275.609375 277.777344 L 220.425781 277.777344 C 219.417969 277.507813 218.371094 277.390625 217.324219 277.46875 Z M 228.175781 297.617188 L 267.855469 297.617188 L 267.855469 426.585938 L 228.175781 426.585938 Z "/>
</g>
</svg>
