<?xml version="1.0" encoding="UTF-8"?>
<svg xmlns="http://www.w3.org/2000/svg" xmlns:xlink="http://www.w3.org/1999/xlink" width="480pt" height="480pt" viewBox="0 0 480 480" version="1.1">
<g id="surface1">
<path style=" stroke:none;fill-rule:nonzero;fill:#ffffff;fill-opacity:1;" d="M 236.84375 31.578125 C 184.292969 31.578125 157.832031 46.074219 138.28125 54.894531 C 121.320313 62.480469 110.527344 79.5625 110.527344 98.003906 L 110.527344 167.144531 L 36.203125 241.46875 C 32.074219 245.414063 30.40625 251.335938 31.886719 256.824219 C 33.304688 262.375 37.625 266.695313 43.175781 268.113281 C 48.664063 269.59375 54.585938 267.925781 58.53125 263.796875 L 110.527344 211.800781 L 110.527344 384.929688 C 110.527344 407.6875 126.933594 427.300781 149.199219 431.496094 C 149.199219 431.558594 149.199219 431.558594 149.261719 431.496094 C 172.820313 435.9375 197.121094 442.105469 236.84375 442.105469 C 276.5625 442.105469 300.863281 435.9375 324.425781 431.496094 C 324.484375 431.558594 324.484375 431.558594 324.484375 431.496094 C 346.75 427.300781 363.15625 407.6875 363.15625 384.929688 L 363.15625 211.800781 L 415.152344 263.796875 C 419.097656 267.925781 425.019531 269.59375 430.511719 268.113281 C 436.0625 266.695313 440.378906 262.375 441.796875 256.824219 C 443.277344 251.335938 441.613281 245.414063 437.480469 241.46875 L 363.15625 167.144531 L 363.15625 98.003906 C 363.15625 79.5625 352.363281 62.480469 335.339844 54.894531 C 335.402344 54.832031 335.402344 54.832031 335.339844 54.832031 C 315.851563 46.074219 289.390625 31.578125 236.84375 31.578125 Z M 236.84375 126.316406 C 315.789063 126.316406 331.578125 157.894531 331.578125 157.894531 L 284.210938 205.261719 L 189.472656 205.261719 L 142.105469 157.894531 C 142.105469 157.894531 157.894531 126.316406 236.84375 126.316406 Z M 142.105469 210.753906 L 173.683594 241.714844 L 173.683594 301.972656 L 142.105469 322.265625 Z M 331.578125 210.753906 L 331.578125 322.265625 L 300 302.035156 L 300 241.714844 Z M 189.472656 331.578125 L 284.210938 331.578125 L 321.402344 358.101563 C 321.402344 358.101563 302.589844 394.738281 236.84375 394.738281 C 171.09375 394.738281 152.34375 358.101563 152.34375 358.101563 Z "/>
</g>
</svg>
