<?xml version="1.0" encoding="UTF-8"?>
<svg xmlns="http://www.w3.org/2000/svg" xmlns:xlink="http://www.w3.org/1999/xlink" width="480pt" height="480pt" viewBox="0 0 480 480" version="1.1">
<g id="surface1">
<path style=" stroke:none;fill-rule:nonzero;fill:#ffffff;fill-opacity:1;" d="M 312.335938 15.789063 C 308.265625 15.789063 304.871094 18.8125 304.441406 22.820313 L 303.761719 28.804688 C 303.023438 35.464844 298.148438 40.890625 291.613281 42.433594 C 290.007813 42.804688 288.34375 43.234375 286.738281 43.667969 C 280.324219 45.578125 273.417969 43.359375 269.46875 37.992188 L 265.953125 33.183594 C 263.546875 29.914063 259.167969 28.988281 255.652344 30.960938 L 249.609375 34.476563 C 246.09375 36.511719 244.675781 40.769531 246.277344 44.46875 L 248.746094 50.082031 C 251.460938 56.1875 249.917969 63.28125 245.046875 67.84375 C 243.875 69.015625 242.703125 70.1875 241.53125 71.421875 C 236.902344 76.234375 229.871094 77.777344 223.703125 75.125 L 218.09375 72.65625 C 214.453125 71.050781 210.136719 72.410156 208.160156 75.925781 L 204.644531 81.96875 C 202.609375 85.484375 203.597656 89.925781 206.804688 92.269531 L 211.617188 95.847656 C 216.980469 99.792969 219.203125 106.703125 217.351563 113.117188 C 216.921875 114.660156 216.488281 116.324219 216.117188 117.925781 C 214.515625 124.464844 209.148438 129.339844 202.488281 130.140625 L 196.441406 130.757813 C 192.496094 131.1875 189.472656 134.582031 189.472656 138.652344 L 189.472656 145.558594 C 189.472656 149.628906 192.496094 153.023438 196.503906 153.453125 L 202.488281 154.070313 C 209.148438 154.871094 214.515625 159.746094 216.117188 166.28125 C 216.488281 167.886719 216.921875 169.550781 217.351563 171.15625 C 219.265625 177.570313 217.042969 184.476563 211.675781 188.425781 L 206.804688 191.941406 C 203.597656 194.347656 202.609375 198.726563 204.644531 202.242188 L 208.160156 208.285156 C 210.136719 211.800781 214.453125 213.21875 218.152344 211.617188 L 223.765625 209.148438 C 229.871094 206.433594 236.964844 207.976563 241.53125 212.847656 C 242.703125 214.019531 243.875 215.191406 245.046875 216.363281 C 249.917969 220.992188 251.460938 228.023438 248.746094 234.191406 L 246.277344 239.800781 C 244.675781 243.441406 246.09375 247.757813 249.609375 249.734375 L 255.652344 253.25 C 259.167969 255.285156 263.546875 254.296875 265.953125 251.089844 L 269.46875 246.277344 C 273.417969 240.914063 280.324219 238.691406 286.738281 240.542969 C 288.34375 240.972656 290.007813 241.40625 291.613281 241.777344 C 298.148438 243.378906 303.023438 248.746094 303.761719 255.40625 L 304.441406 261.453125 C 304.871094 265.398438 308.265625 268.421875 312.335938 268.421875 L 319.242188 268.421875 C 323.3125 268.421875 326.707031 265.398438 327.136719 261.390625 L 327.816406 255.40625 C 328.558594 248.746094 333.429688 243.378906 339.96875 241.777344 C 341.570313 241.40625 343.234375 240.972656 344.839844 240.542969 C 351.253906 238.628906 358.160156 240.851563 362.109375 246.21875 L 365.625 251.089844 C 368.03125 254.296875 372.410156 255.285156 375.925781 253.25 L 381.96875 249.734375 C 385.484375 247.757813 386.902344 243.441406 385.300781 239.742188 L 382.832031 234.128906 C 380.121094 228.023438 381.660156 220.992188 386.535156 216.363281 C 387.707031 215.191406 388.878906 214.019531 390.050781 212.847656 C 394.675781 207.976563 401.707031 206.433594 407.8125 209.148438 L 413.425781 211.554688 C 417.125 213.15625 421.441406 211.800781 423.417969 208.285156 L 426.933594 202.242188 C 428.96875 198.726563 427.980469 194.285156 424.773438 191.941406 L 419.902344 188.363281 C 414.535156 184.417969 412.316406 177.507813 414.226563 171.15625 C 414.660156 169.550781 415.089844 167.886719 415.460938 166.28125 C 417.0625 159.746094 422.429688 154.871094 429.089844 154.070313 L 435.136719 153.453125 C 439.082031 153.023438 442.105469 149.628906 442.105469 145.558594 L 442.105469 138.652344 C 442.105469 134.582031 439.082031 131.1875 435.074219 130.757813 L 429.089844 130.140625 C 422.429688 129.339844 417.003906 124.464844 415.460938 117.925781 C 415.089844 116.324219 414.660156 114.660156 414.226563 113.054688 C 412.316406 106.640625 414.535156 99.792969 419.902344 95.847656 L 424.773438 92.269531 C 427.980469 89.863281 428.90625 85.484375 426.871094 81.96875 L 423.417969 75.925781 C 421.382813 72.410156 417.125 70.992188 413.425781 72.65625 L 407.8125 75.125 C 401.707031 77.777344 394.613281 76.234375 389.988281 71.421875 C 388.878906 70.1875 387.644531 69.015625 386.472656 67.84375 C 381.597656 63.21875 380.058594 56.1875 382.769531 50.082031 L 385.238281 44.46875 C 386.84375 40.769531 385.421875 36.453125 381.90625 34.417969 L 375.925781 30.960938 C 372.410156 28.925781 367.96875 29.914063 365.625 33.121094 L 362.046875 37.992188 C 358.101563 43.359375 351.191406 45.578125 344.839844 43.667969 C 343.234375 43.234375 341.570313 42.804688 339.96875 42.433594 C 333.429688 40.832031 328.496094 35.464844 327.753906 28.804688 L 327.136719 22.820313 C 326.707031 18.8125 323.3125 15.789063 319.242188 15.789063 Z M 315.789063 78.949219 C 350.699219 78.949219 378.949219 107.195313 378.949219 142.105469 C 378.949219 177.015625 350.699219 205.261719 315.789063 205.261719 C 280.878906 205.261719 252.632813 177.015625 252.632813 142.105469 C 252.632813 107.195313 280.878906 78.949219 315.789063 78.949219 Z M 315.789063 110.527344 C 298.335938 110.527344 284.210938 124.652344 284.210938 142.105469 C 284.210938 159.558594 298.335938 173.683594 315.789063 173.683594 C 333.246094 173.683594 347.367188 159.558594 347.367188 142.105469 C 347.367188 124.652344 333.246094 110.527344 315.789063 110.527344 Z M 126.316406 236.84375 C 120.269531 236.84375 114.289063 238.015625 108.675781 240.296875 L 31.578125 268.421875 L 31.578125 394.738281 L 98.191406 365.808594 C 106.085938 362.355469 114.96875 362.234375 122.921875 365.5 L 266.015625 423.972656 C 266.015625 423.972656 266.078125 423.972656 266.140625 423.972656 C 269.285156 425.515625 272.800781 426.316406 276.316406 426.316406 C 280.386719 426.316406 284.394531 425.207031 287.972656 423.171875 C 287.972656 423.171875 288.035156 423.230469 288.097656 423.171875 L 429.953125 344.40625 L 429.953125 344.347656 C 437.417969 340.152344 442.105469 332.257813 442.105469 323.683594 C 442.105469 310.609375 431.496094 300 418.421875 300 C 414.96875 300 411.511719 300.800781 408.367188 302.28125 L 408.367188 302.21875 L 300 347.367188 L 276.316406 347.367188 C 289.390625 347.367188 300 336.761719 300 323.683594 C 300 313.445313 293.402344 304.378906 283.65625 301.171875 L 146.421875 241.28125 L 146.175781 241.28125 C 139.945313 238.382813 133.160156 236.84375 126.316406 236.84375 Z "/>
</g>
</svg>
